<?xml version="1.0" standalone="no"?>
<!DOCTYPE svg PUBLIC "-//W3C//DTD SVG 20010904//EN"
 "http://www.w3.org/TR/2001/REC-SVG-20010904/DTD/svg10.dtd">
<svg version="1.0" xmlns="http://www.w3.org/2000/svg"
 width="320.000000pt" height="320.000000pt" viewBox="0 0 320.000000 320.000000"
 preserveAspectRatio="xMidYMid meet">

<g transform="translate(0.000000,320.000000) scale(0.100000,-0.100000)"
fill="#000000" stroke="none">
<path d="M2430 1894 c-11 -12 -10 -18 3 -32 16 -15 18 -15 34 0 13 14 14 20 3
32 -7 9 -16 16 -20 16 -4 0 -13 -7 -20 -16z"/>
<path d="M1605 1629 c-55 -134 -85 -193 -97 -197 -33 -8 -19 -17 27 -17 47 0
59 9 25 18 -20 5 -20 6 -2 49 l19 43 71 3 71 3 19 -43 c10 -24 25 -48 33 -54
17 -14 109 -25 109 -13 0 5 -4 9 -9 9 -5 0 -18 21 -29 48 -11 26 -48 113 -82
195 -34 81 -65 147 -69 147 -4 0 -43 -86 -86 -191z m78 -7 c15 -38 27 -71 27
-75 0 -4 -27 -7 -60 -7 -33 0 -60 3 -60 7 0 14 53 143 59 143 3 0 18 -31 34
-68z"/>
<path d="M2663 1805 c-37 -16 -53 -42 -53 -85 0 -47 27 -84 88 -122 112 -67
134 -107 87 -153 -44 -45 -115 -23 -150 46 -23 44 -35 35 -35 -26 0 -59 4 -64
30 -40 15 14 20 14 46 0 61 -32 174 -12 208 36 20 29 21 88 1 116 -8 12 -48
42 -89 67 -68 43 -96 76 -96 111 0 21 37 55 59 55 25 0 80 -46 92 -77 15 -41
29 -25 29 33 l0 56 -24 -16 c-22 -14 -28 -14 -53 -1 -35 18 -98 19 -140 0z"/>
<path d="M323 1803 c15 -4 17 -22 17 -189 0 -157 -2 -184 -15 -184 -8 0 -15
-4 -15 -8 0 -5 68 -9 151 -9 113 0 152 3 155 12 3 7 4 32 2 56 -3 41 -4 42
-21 25 -10 -10 -21 -31 -24 -47 -5 -29 -6 -29 -75 -29 l-69 0 3 88 3 87 31 3
c27 3 33 -1 44 -27 20 -49 30 -36 30 35 0 57 -2 65 -15 54 -8 -6 -17 -20 -20
-31 -5 -14 -16 -19 -41 -19 l-34 0 0 90 0 90 65 0 c52 0 65 -3 65 -15 0 -25
30 -76 40 -70 6 4 10 26 10 51 l0 44 -152 -1 c-84 -1 -145 -3 -135 -6z"/>
<path d="M723 1803 c15 -4 17 -22 17 -189 0 -157 -2 -184 -15 -184 -8 0 -15
-3 -15 -7 0 -7 167 -9 265 -4 30 1 30 2 29 49 -1 26 -5 47 -10 46 -9 -1 -29
-35 -38 -66 -4 -15 -17 -18 -66 -18 l-60 0 0 184 c0 138 3 186 13 189 6 3 -22
5 -63 5 -41 0 -67 -2 -57 -5z"/>
<path d="M1093 1799 c15 -9 17 -29 17 -185 0 -167 -1 -176 -20 -181 -34 -9
-22 -18 25 -18 47 0 59 9 25 18 -19 5 -20 14 -20 141 0 75 3 136 8 135 4 0 27
-24 51 -52 148 -177 205 -242 212 -245 5 -2 9 80 9 182 0 180 1 185 22 200 22
15 21 16 -27 15 -40 0 -46 -2 -27 -9 21 -9 22 -15 22 -120 0 -60 -3 -110 -7
-109 -5 0 -33 30 -63 66 -30 37 -77 91 -104 120 -45 50 -51 53 -95 53 -36 -1
-42 -3 -28 -11z"/>
<path d="M1958 1803 c15 -6 18 -373 2 -373 -5 0 -10 -3 -10 -7 0 -5 32 -8 70
-8 39 0 70 3 70 8 0 4 -7 7 -15 7 -12 0 -15 16 -15 80 0 77 1 80 23 80 20 0
28 -11 52 -70 15 -38 35 -76 44 -84 18 -15 121 -28 121 -15 0 5 -5 9 -11 9 -5
0 -24 29 -40 64 -33 71 -45 84 -86 95 -28 8 -28 8 15 20 74 21 106 73 81 132
-21 51 -73 69 -204 68 -60 0 -104 -3 -97 -6z m187 -28 c20 -19 25 -35 25 -71
0 -60 -28 -94 -77 -94 l-33 0 0 95 0 95 30 0 c19 0 40 -9 55 -25z"/>
<path d="M2388 1803 c9 -3 12 -50 12 -185 0 -150 -3 -183 -15 -192 -12 -8 2
-11 60 -11 41 0 75 3 75 8 0 4 -7 7 -15 7 -13 0 -15 27 -15 184 0 167 2 185
18 189 9 3 -17 5 -58 5 -41 0 -69 -2 -62 -5z"/>
</g>
</svg>
